# xmcd CD database file
#
# Track frame offsets:
#	150
#	15478
#	29432
#	50808
#	72162
#	87772
#	108637
#	115761
#	129638
#	141699
#	159686
#	180317
#	203338
#	224038
#	254291
#
# Disc length: 3710 seconds
#
# Revision: 0
# Processed by: cddbd v1.5.2PL0 Copyright (c) Steve Scherf et al.
# Submitted via: CDex 1.70beta2
#
DISCID=dc0e7c0f
DTITLE=Moussu T e Lei Jovents - Empeche nous
DYEAR=2012
DGENRE=Blues
TTITLE0=Empeche moi
TTITLE1=Bons baisers de Marseille
TTITLE2=Sur la rive
TTITLE3=Putan de cancon
TTITLE4=O que calor
TTITLE5=Mademoiselle Marseille
TTITLE6=Je suis rentre a pied
TTITLE7=Alba 7
TTITLE8=Paul, Emile et Henri
TTITLE9=Quand tu n'as que des bons amis
TTITLE10=Lo dintre
TTITLE11=Ma rue n'est pas longue
TTITLE12=Mar e montanha
TTITLE13=Maniveta - 2 be frit confit
TTITLE14=A La Ciotat
EXTD=YEAR: 2012
EXTT0=
EXTT1=
EXTT2=
EXTT3=
EXTT4=
EXTT5=
EXTT6=
EXTT7=
EXTT8=
EXTT9=
EXTT10=
EXTT11=
EXTT12=
EXTT13=
EXTT14=
PLAYORDER=
